<?xml version="1.0" standalone="no"?>
<!DOCTYPE svg PUBLIC "-//W3C//DTD SVG 20010904//EN"
 "http://www.w3.org/TR/2001/REC-SVG-20010904/DTD/svg10.dtd">
<svg version="1.0" xmlns="http://www.w3.org/2000/svg"
 width="700.000000pt" height="700.000000pt" viewBox="0 0 700.000000 700.000000"
 preserveAspectRatio="xMidYMid meet">
<metadata>
Created by potrace 1.11, written by Peter Selinger 2001-2013
</metadata>
<g transform="translate(0.000000,700.000000) scale(0.100000,-0.100000)"
fill="#000000" stroke="none">
<path d="M4962 6986 c-13 -7 -32 -26 -43 -42 -17 -27 -19 -49 -19 -279 l0
-250 -110 -18 c-108 -17 -216 -48 -317 -89 -29 -12 -54 -20 -56 -17 -2 2 -48
81 -102 174 -136 238 -152 261 -186 275 -86 36 -172 -34 -159 -130 1 -8 55
-108 121 -222 65 -114 119 -212 119 -218 0 -5 -24 -27 -52 -49 -72 -53 -176
-156 -238 -235 -29 -36 -54 -66 -57 -66 -2 0 -79 43 -171 97 -263 152 -265
152 -301 148 -65 -8 -110 -59 -106 -120 3 -59 22 -78 145 -147 85 -48 315
-181 319 -184 2 -2 -1 -9 -6 -16 -11 -14 -69 -172 -78 -210 -2 -13 -11 -53
-19 -89 -8 -36 -16 -87 -18 -112 -2 -26 -5 -48 -8 -48 -3 -1 -116 -3 -252 -4
-234 -2 -249 -4 -282 -24 -53 -33 -68 -101 -32 -154 37 -55 48 -57 317 -57
l247 0 6 -22 c3 -13 6 -35 6 -51 0 -49 48 -233 84 -321 l34 -86 -66 -39 c-37
-21 -114 -66 -172 -100 -58 -33 -124 -72 -147 -85 -48 -28 -81 -75 -78 -109 1
-12 3 -29 4 -37 0 -8 13 -28 27 -45 23 -27 31 -30 82 -29 54 0 67 6 222 98 91
53 183 108 206 121 l41 24 31 -43 c51 -71 161 -184 243 -250 l76 -62 -124
-213 c-129 -225 -139 -252 -109 -309 29 -55 113 -73 165 -34 14 10 81 113 147
228 67 115 126 209 130 208 5 0 23 -6 39 -13 110 -48 233 -81 398 -106 l37 -6
0 -247 c0 -272 2 -281 60 -320 39 -26 85 -24 126 6 43 31 47 59 47 317 0 168
4 245 11 246 13 2 38 5 86 12 96 14 240 55 334 96 27 12 50 20 51 19 1 -2 56
-97 123 -213 66 -115 131 -218 144 -227 76 -56 181 -3 182 91 0 29 -25 81
-122 248 -67 117 -122 215 -122 220 1 4 26 26 56 47 65 47 198 180 252 253
l38 52 128 -75 c70 -41 129 -74 130 -74 2 0 41 -22 87 -50 103 -61 149 -66
197 -22 63 59 52 141 -26 190 -52 33 -296 174 -354 206 -21 11 -38 23 -38 27
0 4 14 43 30 86 43 111 63 189 82 316 l11 77 243 0 c144 0 254 4 270 10 85 33
97 148 21 202 -29 20 -40 21 -283 21 l-254 1 -1 28 c-1 15 -2 31 -3 36 -2 7
-15 79 -23 122 -7 44 -44 163 -69 222 -13 32 -24 62 -24 67 0 5 65 46 145 92
80 46 167 97 193 112 26 15 57 33 69 39 24 12 53 64 53 96 0 35 -20 77 -48 97
-47 34 -94 25 -207 -40 -220 -128 -302 -175 -317 -180 -11 -5 -25 7 -47 38
-38 56 -170 191 -241 247 -30 24 -59 47 -64 51 -8 7 33 83 179 334 48 81 58
108 58 144 0 38 -5 49 -36 78 -41 37 -79 42 -130 18 -30 -14 -53 -47 -147
-214 -91 -161 -133 -231 -137 -231 -3 0 -49 16 -102 36 -53 20 -144 47 -204
59 -59 13 -110 23 -112 24 -3 1 -18 1 -33 1 l-28 0 -1 253 c0 226 -2 257 -18
281 -32 48 -105 69 -153 42z"/>
<path d="M1928 4651 c-56 -27 -61 -50 -61 -322 l-1 -247 -90 -15 c-50 -9 -104
-19 -121 -22 -44 -8 -153 -45 -213 -71 l-52 -23 -24 37 c-12 20 -69 117 -126
215 -58 101 -114 185 -128 195 -35 23 -95 21 -129 -4 -15 -11 -34 -39 -41 -62
-15 -44 -7 -69 54 -172 70 -120 99 -169 122 -210 14 -25 34 -58 44 -75 10 -16
18 -33 18 -37 0 -3 -28 -28 -62 -55 -88 -69 -175 -157 -234 -235 l-51 -67 -57
35 c-31 19 -59 34 -61 34 -3 0 -34 18 -70 40 -36 22 -68 40 -71 40 -3 0 -18 9
-33 19 -80 58 -146 85 -198 82 -66 -3 -113 -103 -80 -168 15 -27 127 -99 342
-218 91 -50 105 -61 105 -75 0 -9 -4 -20 -9 -25 -29 -32 -107 -328 -110 -422
l-1 -23 -244 0 c-149 0 -255 -4 -274 -11 -34 -12 -72 -63 -72 -98 0 -36 27
-88 55 -107 23 -15 56 -17 279 -17 l254 0 7 -61 c9 -90 50 -247 88 -340 l33
-82 -80 -45 c-203 -112 -339 -195 -361 -219 -28 -31 -27 -110 0 -140 28 -32
80 -52 113 -44 23 6 221 116 385 215 27 16 52 29 56 29 4 0 35 -35 68 -77 62
-79 185 -197 252 -243 l37 -25 -27 -47 c-15 -25 -38 -66 -52 -90 -13 -23 -55
-95 -92 -158 -77 -131 -90 -170 -71 -214 19 -45 50 -68 98 -73 56 -6 85 16
140 110 23 40 67 115 97 167 31 52 65 112 76 134 25 47 36 52 78 33 69 -33
231 -81 307 -91 25 -4 63 -9 86 -12 l41 -6 0 -252 c-1 -227 1 -254 18 -279 35
-55 102 -72 156 -40 55 32 59 57 59 327 l0 246 28 1 c15 0 34 2 42 4 8 2 33 6
55 10 65 10 226 57 284 82 29 13 59 23 65 23 9 0 35 -42 141 -229 116 -204
139 -231 202 -231 38 0 91 34 103 66 22 58 12 84 -114 304 l-124 214 56 42
c63 45 189 171 252 252 23 28 44 52 47 52 2 0 32 -16 64 -35 33 -19 63 -35 65
-35 3 0 18 -8 32 -19 15 -10 45 -29 67 -41 22 -12 74 -42 115 -65 41 -24 87
-46 101 -50 35 -9 93 17 115 50 22 34 23 95 2 127 -9 13 -76 59 -150 102 -73
42 -140 81 -148 86 -8 5 -44 26 -80 46 -79 44 -73 38 -61 61 48 87 108 312
115 433 l2 25 253 2 c246 2 254 3 287 25 53 36 65 98 31 150 -38 56 -49 58
-319 58 l-247 0 -5 33 c-21 137 -29 173 -50 243 -13 43 -35 107 -49 141 l-25
62 91 54 c51 30 144 85 208 121 64 37 126 77 138 89 44 48 29 142 -28 171 -60
32 -85 23 -306 -104 -115 -66 -213 -120 -219 -120 -6 1 -31 28 -56 61 -49 66
-185 200 -250 246 -22 15 -40 33 -40 39 0 7 54 106 120 220 124 213 136 246
110 294 -15 28 -48 60 -64 61 -6 1 -24 2 -39 3 -50 5 -114 -57 -156 -149 -5
-11 -34 -63 -65 -114 -31 -51 -56 -95 -56 -97 0 -2 -14 -26 -30 -53 l-30 -49
-73 30 c-88 36 -227 74 -305 84 -31 4 -64 8 -72 10 -8 1 -18 3 -22 3 -5 1 -8
112 -8 249 0 271 -2 281 -59 319 -37 25 -68 26 -113 4z"/>
<path d="M5404 2996 c-19 -19 -34 -42 -35 -52 0 -11 -1 -101 -2 -201 l-1 -182
-65 -11 c-36 -6 -104 -24 -153 -39 l-87 -29 -62 106 c-33 58 -72 126 -86 151
-46 84 -89 115 -144 106 -57 -10 -89 -44 -101 -105 -4 -20 23 -100 34 -100 4
0 8 -4 8 -9 0 -5 34 -67 75 -138 l75 -128 -27 -24 c-59 -49 -120 -109 -158
-154 l-40 -46 -163 94 c-175 101 -207 111 -262 79 -34 -21 -58 -69 -53 -109 7
-58 29 -76 243 -197 113 -65 121 -71 115 -87 -10 -22 -56 -156 -54 -156 0 0
-2 -16 -6 -35 -12 -67 -13 -75 -14 -86 -1 -7 -56 -11 -168 -11 -248 -1 -231 1
-269 -37 -28 -28 -34 -41 -34 -78 0 -24 7 -54 16 -66 32 -47 60 -52 263 -52
l189 0 6 -27 c3 -16 9 -46 12 -68 5 -34 36 -139 59 -196 4 -10 -2 -19 -17 -27
-13 -6 -45 -25 -73 -41 -27 -16 -72 -42 -100 -56 -27 -15 -57 -33 -66 -41 -8
-8 -20 -14 -26 -14 -6 0 -24 -13 -40 -30 -71 -76 -31 -190 70 -196 37 -2 62 9
205 92 90 52 168 94 173 94 5 0 9 -5 9 -11 0 -6 47 -56 104 -112 l103 -102
-90 -155 c-49 -85 -93 -166 -97 -180 -18 -65 40 -140 108 -140 65 0 91 26 179
181 115 202 98 186 166 160 49 -18 104 -32 223 -56 20 -4 20 -11 20 -198 1
-184 2 -196 23 -225 46 -66 149 -64 191 2 18 31 20 49 20 224 0 212 -6 195 74
208 62 9 68 11 150 38 43 15 80 25 81 24 4 -4 52 -86 125 -211 35 -59 74 -117
88 -127 49 -39 137 -17 168 42 22 43 13 85 -37 171 -51 89 -67 117 -109 191
l-33 58 34 27 c42 32 128 119 163 163 24 30 27 32 48 19 115 -72 305 -173 332
-178 99 -16 167 113 99 186 -23 25 -160 110 -273 169 -64 34 -64 33 -37 109
26 71 49 172 49 211 l1 22 189 0 c216 0 245 7 271 63 22 46 21 75 -3 114 -31
52 -46 56 -257 56 -187 1 -194 2 -198 22 -2 11 -9 47 -16 80 -6 33 -23 91 -36
129 -30 83 -48 62 158 181 81 47 154 96 163 110 9 13 16 43 16 66 0 35 -6 47
-37 76 -57 54 -93 46 -282 -64 l-155 -89 -113 113 -114 113 28 47 c15 26 33
57 40 68 7 11 16 27 20 35 4 8 27 48 51 89 52 88 60 126 38 169 -30 58 -86 80
-145 56 -43 -18 -43 -18 -148 -202 -67 -117 -91 -151 -103 -146 -41 17 -166
55 -199 60 -20 2 -48 7 -63 10 l-28 6 -1 191 c-1 106 -1 195 0 199 0 4 -14 23
-33 42 -29 31 -39 36 -81 36 -40 0 -52 -5 -81 -34z"/>
</g>
</svg>
